<?xml version="1.0" encoding="UTF-8" standalone="no"?>
<!-- Created with Inkscape (http://www.inkscape.org/) -->

<svg
   xmlns:dc="http://purl.org/dc/elements/1.1/"
   xmlns:cc="http://creativecommons.org/ns#"
   xmlns:rdf="http://www.w3.org/1999/02/22-rdf-syntax-ns#"
   xmlns:svg="http://www.w3.org/2000/svg"
   xmlns="http://www.w3.org/2000/svg"
   xmlns:sodipodi="http://sodipodi.sourceforge.net/DTD/sodipodi-0.dtd"
   xmlns:inkscape="http://www.inkscape.org/namespaces/inkscape"
   width="28.222221mm"
   height="28.222221mm"
   viewBox="0 0 99.999998 99.999996"
   id="svg2"
   version="1.1"
   inkscape:version="0.91 r13725"
   sodipodi:docname="banner.svg"
   inkscape:export-filename="/home/iniuser/Documents/website/inisite/resources/img/favicon.png"
   inkscape:export-xdpi="57.599998"
   inkscape:export-ydpi="57.599998">
  <defs
     id="defs4" />
  <sodipodi:namedview
     id="base"
     pagecolor="#ffffff"
     bordercolor="#666666"
     borderopacity="1.0"
     inkscape:pageopacity="0.0"
     inkscape:pageshadow="2"
     inkscape:zoom="1.1909815"
     inkscape:cx="27.09367"
     inkscape:cy="-57.732937"
     inkscape:document-units="px"
     inkscape:current-layer="layer1"
     showgrid="false"
     inkscape:window-width="1680"
     inkscape:window-height="986"
     inkscape:window-x="0"
     inkscape:window-y="27"
     inkscape:window-maximized="1"
     fit-margin-top="0"
     fit-margin-left="0"
     fit-margin-right="0"
     fit-margin-bottom="0" />
  <metadata
     id="metadata7">
    <rdf:RDF>
      <cc:Work
         rdf:about="">
        <dc:format>image/svg+xml</dc:format>
        <dc:type
           rdf:resource="http://purl.org/dc/dcmitype/StillImage" />
        <dc:title></dc:title>
      </cc:Work>
    </rdf:RDF>
  </metadata>
  <g
     inkscape:label="Ebene 1"
     inkscape:groupmode="layer"
     id="layer1"
     transform="translate(-332.75031,-618.49127)">
    <rect
       style="opacity:1;fill:#df5cda;fill-opacity:1;fill-rule:nonzero;stroke:none;stroke-width:3.375;stroke-miterlimit:4;stroke-dasharray:none;stroke-dashoffset:0;stroke-opacity:1"
       id="rect4233"
       width="100"
       height="100"
       x="332.75031"
       y="618.49127" />
    <g
       id="g4228"
       transform="matrix(1.256428,0,0,1.256428,178.00124,-166.13034)"
       style="fill:#ffffff;fill-opacity:1">
      <path
         d="m 139.1991,687.20197 -6.09543,0 0,-45.02446 6.09543,0 0,45.02446 z"
         style="font-style:normal;font-variant:normal;font-weight:normal;font-stretch:normal;font-size:medium;line-height:125%;font-family:Lato;-inkscape-font-specification:Lato;text-align:end;letter-spacing:0px;word-spacing:0px;text-anchor:end;fill:#ffffff;fill-opacity:1;stroke:none;stroke-width:1px;stroke-linecap:butt;stroke-linejoin:miter;stroke-opacity:1"
         id="path4182"
         inkscape:connector-curvature="0" />
      <path
         d="m 150.36193,687.20197 0,-31.82818 3.33049,0 q 1.19395,0 1.50815,1.16253 l 0.43988,3.45617 q 2.0737,-2.29364 4.6187,-3.70753 2.57641,-1.41388 5.93832,-1.41388 2.60784,0 4.58728,0.87975 2.01086,0.84833 3.33049,2.45074 1.35105,1.57098 2.04228,3.80178 0.69124,2.2308 0.69124,4.9329 l 0,20.26572 -5.59271,0 0,-20.26572 q 0,-3.61327 -1.66525,-5.59271 -1.63382,-2.01086 -5.02715,-2.01086 -2.48216,0 -4.65012,1.19394 -2.13654,1.19395 -3.95889,3.23624 l 0,23.43911 -5.59271,0 z"
         style="font-style:normal;font-variant:normal;font-weight:normal;font-stretch:normal;font-size:medium;line-height:125%;font-family:Lato;-inkscape-font-specification:Lato;text-align:end;letter-spacing:0px;word-spacing:0px;text-anchor:end;fill:#ffffff;fill-opacity:1;stroke:none;stroke-width:1px;stroke-linecap:butt;stroke-linejoin:miter;stroke-opacity:1"
         id="path4184"
         inkscape:connector-curvature="0" />
      <path
         d="m 191.56202,655.37379 0,31.82818 -5.59271,0 0,-31.82818 5.59271,0 z m 1.25679,-9.99147 q 0,0.81691 -0.34562,1.53957 -0.3142,0.69123 -0.87975,1.25679 -0.53414,0.53413 -1.25679,0.84833 -0.72265,0.3142 -1.53957,0.3142 -0.81691,0 -1.53956,-0.3142 -0.69124,-0.3142 -1.25679,-0.84833 -0.53414,-0.56556 -0.84833,-1.25679 -0.3142,-0.72266 -0.3142,-1.53957 0,-0.81691 0.3142,-1.53957 0.31419,-0.75407 0.84833,-1.2882 0.56555,-0.56556 1.25679,-0.87976 0.72265,-0.31419 1.53956,-0.31419 0.81692,0 1.53957,0.31419 0.72265,0.3142 1.25679,0.87976 0.56555,0.53413 0.87975,1.2882 0.34562,0.72266 0.34562,1.53957 z"
         style="font-style:normal;font-variant:normal;font-weight:normal;font-stretch:normal;font-size:medium;line-height:125%;font-family:Lato;-inkscape-font-specification:Lato;text-align:end;letter-spacing:0px;word-spacing:0px;text-anchor:end;fill:#ffffff;fill-opacity:1;stroke:none;stroke-width:1px;stroke-linecap:butt;stroke-linejoin:miter;stroke-opacity:1"
         id="path4186"
         inkscape:connector-curvature="0" />
    </g>
    <text
       xml:space="preserve"
       style="font-style:normal;font-variant:normal;font-weight:500;font-stretch:normal;font-size:12px;line-height:125%;font-family:jsMath-cmex10;-inkscape-font-specification:'jsMath-cmex10 Medium';text-align:end;letter-spacing:0px;word-spacing:0px;text-anchor:end;fill:#000000;fill-opacity:1;stroke:none;stroke-width:1px;stroke-linecap:butt;stroke-linejoin:miter;stroke-opacity:1"
       x="169.608"
       y="776.95911"
       id="text4152"
       sodipodi:linespacing="125%"><tspan
         sodipodi:role="line"
         id="tspan4154"
         x="169.608"
         y="776.95911" /></text>
  </g>
</svg>
